<?xml version="1.0" standalone="no"?>
<!DOCTYPE svg PUBLIC "-//W3C//DTD SVG 20010904//EN"
 "http://www.w3.org/TR/2001/REC-SVG-20010904/DTD/svg10.dtd">
<svg version="1.0" xmlns="http://www.w3.org/2000/svg"
 width="400.000000pt" height="400.000000pt" viewBox="0 0 400.000000 400.000000"
 preserveAspectRatio="xMidYMid meet">

<g transform="translate(0.000000,400.000000) scale(0.100000,-0.100000)"
fill="#000000" stroke="none">
<path d="M0 2000 l0 -2000 2000 0 2000 0 0 2000 0 2000 -2000 0 -2000 0 0
-2000z m1487 994 c140 -29 260 -90 290 -148 24 -46 24 -212 0 -249 -23 -35
-35 -34 -94 7 -157 108 -311 141 -451 98 -200 -63 -304 -256 -305 -567 -1
-331 113 -521 341 -565 129 -26 261 2 402 85 42 25 84 45 94 45 25 0 36 -42
36 -138 0 -63 -5 -97 -18 -122 -50 -101 -292 -178 -522 -167 -143 8 -222 26
-326 77 -214 106 -336 306 -374 610 -46 376 72 731 300 902 90 68 231 125 345
141 73 10 212 6 282 -9z m721 -15 c39 -13 23 31 263 -731 107 -339 195 -615
196 -614 3 3 413 1315 413 1322 0 33 264 49 308 18 14 -9 22 -25 21 -42 0 -15
-121 -382 -268 -817 l-267 -790 -35 -18 c-29 -15 -56 -17 -199 -15 -134 2
-171 6 -191 20 -22 14 -61 122 -289 799 -145 430 -263 798 -264 818 -1 28 4
38 24 48 31 16 244 18 288 2z"/>
</g>
</svg>
